# xmcd
#
# Track frame offsets: 
#        150
#        15080
#        38532
#        57266
#        75246
#        89882
#        112114
#        127107
#        153032
#        166040
#        187970
#
# Disc length: 2738 seconds
#
# Revision: 0
# Processed by: cddbd v1.5.2PL0 Copyright (c) Steve Scherf et al.
# Submitted via: ExactAudioCopy v1.0b3
#
DISCID=760ab00b
DTITLE=Cole Porter Band - Devil By the Tail
DYEAR=2013
DGENRE=Alternative Country
TTITLE0=Fly With Me
TTITLE1=Good Thing Going
TTITLE2=Don't Let Me Go
TTITLE3=Devil By the Tail
TTITLE4=Give Me One Chance
TTITLE5=Back's Against the Wall
TTITLE6=I-44
TTITLE7=The Trailer Song
TTITLE8=Busted Dreams
TTITLE9=A Chapter
TTITLE10=Little S.O.B.
EXTD=
EXTT0=
EXTT1=
EXTT2=
EXTT3=
EXTT4=
EXTT5=
EXTT6=
EXTT7=
EXTT8=
EXTT9=
EXTT10=
PLAYORDER=
